<svg
  xmlns="http://www.w3.org/2000/svg"
  height="100%"
  width="100%"
  fill="none"
  viewBox="0 0 460 460"
>
  <path
    d="M68.31 340.318a3.75 3.75 0 0 1-7.498-.239 3.734 3.734 0 0 1 3.73-3.646 4.012 4.012 0 0 1 3.767 3.885zM100.648 340.084a3.868 3.868 0 0 1 3.783 3.885 3.698 3.698 0 0 1-3.583 3.645 3.885 3.885 0 0 1-3.936-3.739 3.96 3.96 0 0 1 3.736-3.791zM230.29 19.18a3.97 3.97 0 0 1-3.846 3.828 3.71 3.71 0 1 1 .005-7.421 3.748 3.748 0 0 1 3.841 3.593zM355.959 152.392a3.817 3.817 0 0 1-3.856-3.769 3.922 3.922 0 0 1 3.751-3.733 4.025 4.025 0 0 1 3.769 3.747 3.751 3.751 0 0 1-3.664 3.755zM128.038 400.108a3.756 3.756 0 0 1-4.035 3.456 3.753 3.753 0 0 1-3.455-4.031 3.748 3.748 0 0 1 3.802-3.383 3.988 3.988 0 0 1 3.688 3.958zM374.557 163.616a3.766 3.766 0 0 1-3.722 3.704 3.799 3.799 0 0 1-3.79-3.645 3.857 3.857 0 0 1 3.794-3.857 4.024 4.024 0 0 1 3.718 3.798zM86.895 326.388a3.771 3.771 0 0 1-1.157 2.691 3.76 3.76 0 0 1-2.736 1.047 3.75 3.75 0 0 1-2.657-1.23 3.752 3.752 0 0 1-.969-2.762 3.721 3.721 0 0 1 3.846-3.558 3.893 3.893 0 0 1 3.673 3.812zM281.269 77.767a3.719 3.719 0 0 1-3.464-2.277 3.719 3.719 0 0 1 4.872-4.868 3.718 3.718 0 0 1 2.277 3.463 3.63 3.63 0 0 1-1.069 2.615 3.641 3.641 0 0 1-2.616 1.067zM330.099 159.897a3.712 3.712 0 0 1-3.919 3.463 3.816 3.816 0 0 1-3.578-3.863 3.759 3.759 0 0 1 5.405-3.295 3.75 3.75 0 0 1 2.092 3.695zM149.692 396.464a3.648 3.648 0 0 1 3.729-3.645 3.72 3.72 0 0 1 2.085.632 3.726 3.726 0 0 1 .529 5.768 3.738 3.738 0 0 1-4.1.756 3.735 3.735 0 0 1-2.243-3.511zM104.47 383.701a3.85 3.85 0 0 1-3.921-3.732 3.76 3.76 0 0 1 3.761-3.596 3.762 3.762 0 0 1 3.758 3.595 3.652 3.652 0 0 1-2.197 3.433 3.636 3.636 0 0 1-1.401.3zM329.752 118.812a3.708 3.708 0 0 1-3.649 3.733 3.842 3.842 0 0 1-3.849-3.601 3.765 3.765 0 0 1 2.26-3.51 3.764 3.764 0 0 1 4.107.742 3.748 3.748 0 0 1 1.145 2.636h-.014zM163.756 366.637a3.752 3.752 0 0 1 2.65 6.31 3.757 3.757 0 0 1-2.538 1.192 3.925 3.925 0 0 1-3.841-3.82 3.721 3.721 0 0 1 3.729-3.682zM292.106 163.418a3.83 3.83 0 0 1 3.717 3.74 3.753 3.753 0 0 1-2.349 3.562 3.771 3.771 0 0 1-2.943-.054 3.749 3.749 0 0 1-2.212-3.646 3.706 3.706 0 0 1 3.787-3.602zM336.387 173.39a3.643 3.643 0 0 1 2.193-3.467 3.634 3.634 0 0 1 1.412-.302 3.82 3.82 0 0 1 3.848 3.776 3.727 3.727 0 0 1-7.453.001v-.008zM275.776 188.752a3.773 3.773 0 0 1-3.736 3.697 3.752 3.752 0 0 1-3.672-3.684 3.757 3.757 0 0 1 3.538-3.818 3.952 3.952 0 0 1 3.87 3.805zM267.046 138.388a3.757 3.757 0 0 1-5.256 3.379 3.742 3.742 0 0 1-1.996-2.067 3.744 3.744 0 0 1-.26-1.442 3.714 3.714 0 0 1 3.794-3.609 3.833 3.833 0 0 1 3.718 3.739zM178.012 52.365a3.73 3.73 0 0 1 2.698 1.088 3.72 3.72 0 0 1 1.092 2.696 3.868 3.868 0 0 1-3.874 3.594 3.687 3.687 0 0 1-2.538-6.325 3.694 3.694 0 0 1 2.622-1.053zM280.888 1a3.74 3.74 0 1 1 .141 7.48 3.993 3.993 0 0 1-3.914-3.798A3.823 3.823 0 0 1 280.888 1zM311.061 107.624a3.83 3.83 0 0 1-3.768-3.703 3.743 3.743 0 0 1 1.125-2.645 3.753 3.753 0 0 1 6.387 2.71 3.714 3.714 0 0 1-3.744 3.638zM59.484 62.76a3.816 3.816 0 0 1 4.1-3.471 3.754 3.754 0 0 1 3.397 3.972 3.94 3.94 0 0 1-3.918 3.53 3.87 3.87 0 0 1-3.579-4.032zM378.522 219.287a3.844 3.844 0 0 1-3.904 3.748 3.784 3.784 0 0 1-3.586-3.835 3.748 3.748 0 0 1 7.49.087zM400.05 326.993a3.717 3.717 0 0 1-2.286 3.548 3.706 3.706 0 0 1-1.458.287 3.64 3.64 0 0 1-3.579-3.601 3.703 3.703 0 0 1 .984-2.74 3.705 3.705 0 0 1 2.665-1.175 3.656 3.656 0 0 1 2.61 1.07 3.652 3.652 0 0 1 1.064 2.611zM347.994 100.741a3.69 3.69 0 0 1-3.772 3.572 3.956 3.956 0 0 1-3.71-3.922 3.91 3.91 0 0 1 3.852-3.587 3.805 3.805 0 0 1 3.63 3.937zM347.457 324.99a3.843 3.843 0 0 1-3.805-3.644 3.747 3.747 0 0 1 3.579-3.757 3.744 3.744 0 0 1 3.904 3.413 3.946 3.946 0 0 1-3.678 3.988zM373.048 239.651a3.869 3.869 0 0 1-3.89 3.776 3.764 3.764 0 0 1-3.384-2.402 3.761 3.761 0 0 1 .889-4.055 3.77 3.77 0 0 1 4.081-.771 3.757 3.757 0 0 1 2.304 3.452zM296.193 92.696a3.82 3.82 0 0 1-3.812-3.827 3.76 3.76 0 0 1 3.817-3.537A3.752 3.752 0 0 1 299.885 89a3.688 3.688 0 0 1-3.692 3.696zM352.886 304.602a3.846 3.846 0 0 1-3.761-3.696 3.752 3.752 0 0 1 3.627-3.76 3.746 3.746 0 0 1 3.863 3.512 3.926 3.926 0 0 1-3.729 3.944zM192.691 271.635a3.753 3.753 0 0 1-3.598 3.813 4.023 4.023 0 0 1-3.9-3.805 3.817 3.817 0 0 1 3.773-3.645 3.731 3.731 0 0 1 3.725 3.637zM4.774 276.707a3.921 3.921 0 0 1 3.805 3.878 3.755 3.755 0 0 1-3.807 3.543 3.753 3.753 0 0 1-3.698-3.652 3.872 3.872 0 0 1 3.7-3.769zM330.496 82.985a3.898 3.898 0 0 1-3.648 3.813 3.982 3.982 0 0 1-3.893-3.753 3.685 3.685 0 0 1 2.24-3.435c.445-.192.924-.293 1.409-.298a3.791 3.791 0 0 1 3.892 3.673zM358.271 284.209a3.833 3.833 0 0 1-3.644-3.791 3.75 3.75 0 0 1 6.321-2.587 3.743 3.743 0 0 1 1.169 2.535 3.919 3.919 0 0 1-3.846 3.843zM231.729 309.996a3.748 3.748 0 0 1 3.612-3.799 3.847 3.847 0 0 1 3.914 3.74 4.075 4.075 0 0 1-3.787 3.755 3.784 3.784 0 0 1-3.739-3.696zM55.805 86.485a3.697 3.697 0 1 1 .142 7.392 3.646 3.646 0 0 1-3.762-3.645 3.749 3.749 0 0 1 3.62-3.747zM367.568 259.907a3.904 3.904 0 0 1-3.758 3.915 3.763 3.763 0 0 1-3.464-2.284 3.76 3.76 0 0 1 .747-4.081 3.767 3.767 0 0 1 5.769.402 3.76 3.76 0 0 1 .706 2.048zM421.961 245.46a3.715 3.715 0 0 1-2.318 3.528c-.464.188-.961.28-1.461.271a3.645 3.645 0 0 1-3.55-3.645 3.652 3.652 0 0 1 1.005-2.604 3.66 3.66 0 0 1 2.552-1.132 3.653 3.653 0 0 1 2.605 1.003 3.643 3.643 0 0 1 1.131 2.55l.036.029zM379.601 314.638a3.756 3.756 0 0 1-2.319 3.537c-.464.191-.96.288-1.461.284a3.82 3.82 0 0 1-3.688-3.579 3.986 3.986 0 0 1 3.743-3.945 3.74 3.74 0 0 1 3.725 3.703zM19.337 222.405a3.724 3.724 0 0 1 3.82 3.55 4 4 0 0 1-3.649 3.974 3.835 3.835 0 0 1-3.805-3.813 3.75 3.75 0 0 1 3.634-3.711zM133.697 68.823a3.718 3.718 0 0 1-1.067 2.69 3.724 3.724 0 0 1-2.669 1.116 3.916 3.916 0 0 1-3.776-3.645 3.976 3.976 0 0 1 3.868-3.842 3.713 3.713 0 0 1 3.644 3.681zM340.632 60.77a3.726 3.726 0 0 1 3.747 3.702 3.716 3.716 0 0 1-1.078 2.64 3.726 3.726 0 0 1-2.629 1.108 4.008 4.008 0 0 1-3.805-3.842 3.744 3.744 0 0 1 3.765-3.609zM229.102 211.713a3.77 3.77 0 0 1-3.743 3.646 3.72 3.72 0 0 1-2.73-1.026 3.706 3.706 0 0 1 .003-5.362 3.71 3.71 0 0 1 2.731-1.026 3.867 3.867 0 0 1 3.739 3.768zM247.289 338.283a3.84 3.84 0 0 1-3.831 3.82 3.746 3.746 0 0 1-2.591-6.419 3.747 3.747 0 0 1 2.661-1.075 3.799 3.799 0 0 1 3.761 3.674zM376.868 104.081a3.65 3.65 0 0 1 3.693-3.646 3.864 3.864 0 0 1 3.6 3.827 3.58 3.58 0 0 1-1.036 2.624 3.585 3.585 0 0 1-2.612 1.066 3.65 3.65 0 0 1-3.436-2.407 3.645 3.645 0 0 1-.209-1.464zM284.276 204.651a3.71 3.71 0 0 1 3.648-3.704 3.761 3.761 0 0 1 3.815 4.443 3.762 3.762 0 0 1-2.96 3.004 3.758 3.758 0 0 1-4.503-3.743zM75.555 109.446a3.638 3.638 0 0 1-2.625-1.041 3.634 3.634 0 0 1-1.092-2.603 3.837 3.837 0 0 1 3.773-3.886 3.927 3.927 0 0 1 3.644 3.644 3.722 3.722 0 0 1-3.7 3.886zM26.719 202.648a3.636 3.636 0 0 1-2.624-1.018 3.643 3.643 0 0 1-1.115-2.583 3.75 3.75 0 1 1 7.49-.241 3.766 3.766 0 0 1-1.072 2.704 3.763 3.763 0 0 1-2.679 1.138zM148.837 351.71a3.74 3.74 0 0 1 3.696 3.703 3.695 3.695 0 0 1-2.199 3.462 3.69 3.69 0 0 1-1.406.314 3.889 3.889 0 0 1-3.834-3.805 3.763 3.763 0 0 1 3.743-3.674zM389.458 178.381a3.74 3.74 0 0 1-4.372 3.78 3.733 3.733 0 0 1-2.865-5.014 3.74 3.74 0 0 1 3.381-2.411 3.968 3.968 0 0 1 3.856 3.645zM121.365 48.502a3.796 3.796 0 0 1-3.904 3.69 4.001 4.001 0 0 1-3.645-3.85 3.869 3.869 0 0 1 3.802-3.646 3.646 3.646 0 0 1 3.747 3.806zM338.989 372.775a3.64 3.64 0 0 1-2.558-1.114 3.639 3.639 0 0 1-.717-3.986 3.666 3.666 0 0 1 2.01-1.938 3.648 3.648 0 0 1 1.401-.252c.485-.001.965.096 1.412.284a3.647 3.647 0 0 1 2.232 3.433 3.709 3.709 0 0 1-3.78 3.573zM443.825 163.943a3.649 3.649 0 0 1-3.787 3.748 3.764 3.764 0 0 1-3.461-2.34 3.76 3.76 0 0 1 2.77-5.114 3.766 3.766 0 0 1 3.854 1.615c.41.62.627 1.348.624 2.091zM318.716 375.595a3.742 3.742 0 0 1-3.882 3.646 3.86 3.86 0 0 1-3.645-3.798 4 4 0 0 1 3.78-3.696 3.75 3.75 0 0 1 2.687 1.133 3.742 3.742 0 0 1 1.06 2.715zM148.65 41.088a3.947 3.947 0 0 1-3.861 3.806 3.716 3.716 0 0 1-2.619-1.1 3.71 3.71 0 0 1 2.66-6.322 3.756 3.756 0 0 1 3.82 3.616zM203.014 26.469a3.638 3.638 0 0 1-1.033 2.713 3.655 3.655 0 0 1-2.689 1.1 3.887 3.887 0 0 1-3.812-3.645 3.838 3.838 0 0 1 3.824-3.791 3.64 3.64 0 0 1 3.421 2.22c.188.443.287.92.289 1.403zM396.995 149.547a3.831 3.831 0 0 1 3.812 3.827 3.763 3.763 0 0 1-3.838 3.675 3.756 3.756 0 0 1-3.673-3.835 3.642 3.642 0 0 1 2.283-3.402c.45-.182.931-.272 1.416-.265zM404.116 124.247a3.712 3.712 0 0 1-3.743 3.646 3.948 3.948 0 0 1-2.657-1.178 3.947 3.947 0 0 1-1.126-2.678 3.766 3.766 0 0 1 6.503-2.474 3.757 3.757 0 0 1 1.023 2.692v-.008zM195.126 404.11a3.58 3.58 0 0 1 2.544.993 3.58 3.58 0 0 1 1.101 2.498 3.797 3.797 0 0 1-1.158 2.689 3.8 3.8 0 0 1-2.724 1.074 3.646 3.646 0 0 1-3.645-3.689c.023-2.245 1.483-3.602 3.882-3.565zM45.076 144.496a4.004 4.004 0 0 1-3.802 3.871 3.877 3.877 0 0 1-3.696-3.739 3.749 3.749 0 0 1 3.686-3.813 3.746 3.746 0 0 1 3.812 3.681zM72.817 129.649a3.774 3.774 0 0 1-1.09 2.689 3.773 3.773 0 0 1-2.675 1.125 3.837 3.837 0 0 1-3.732-3.682 3.99 3.99 0 0 1 3.824-3.842 3.766 3.766 0 0 1 3.673 3.71zM191.209 436.145a3.67 3.67 0 0 1-1.149-7.112 3.678 3.678 0 0 1 3.973.938 3.67 3.67 0 0 1-.189 5.191 3.68 3.68 0 0 1-2.635.983zM344.69 133.656a3.739 3.739 0 0 1-3.648 3.777 3.821 3.821 0 0 1-3.878-3.557 3.939 3.939 0 0 1 3.729-3.945 4.016 4.016 0 0 1 3.797 3.725zM164.164 443.383a3.698 3.698 0 0 1-3.683-4.991 3.702 3.702 0 0 1 3.402-2.394 3.694 3.694 0 0 1 1.71 7.072 3.706 3.706 0 0 1-1.429.313zM278.445 226.54a3.647 3.647 0 0 1 3.605-3.762 3.644 3.644 0 0 1 3.472 2.166c.196.443.302.921.311 1.405a3.838 3.838 0 0 1-3.539 3.894 3.648 3.648 0 0 1-3.572-2.241 3.646 3.646 0 0 1-.277-1.462zM92.538 238.72a3.79 3.79 0 0 1 2.282-3.565 3.81 3.81 0 0 1 1.454-.314 3.738 3.738 0 0 1 3.38 5.024 3.683 3.683 0 0 1-3.311 2.391 3.69 3.69 0 0 1-2.636-.98 3.668 3.668 0 0 1-1.17-2.556zM342.089 337.874a3.72 3.72 0 0 1 3.564 3.834 3.971 3.971 0 0 1-3.852 3.646 3.843 3.843 0 0 1-3.645-3.805 3.784 3.784 0 0 1 1.196-2.662 3.777 3.777 0 0 1 2.737-1.013zM137.593 340.603a3.741 3.741 0 0 1-3.7 3.697 3.924 3.924 0 0 1-3.717-3.762 3.709 3.709 0 0 1 2.284-3.554 3.701 3.701 0 0 1 4.131.883 3.71 3.71 0 0 1 1.002 2.736zM121.96 361.491a3.545 3.545 0 0 1-1.056 2.623 3.556 3.556 0 0 1-2.637 1.023 3.693 3.693 0 0 1-3.71-3.645 3.7 3.7 0 0 1 1.042-2.718 3.718 3.718 0 0 1 4.138-.821 3.694 3.694 0 0 1 1.999 2.114c.173.469.249.968.224 1.468v-.044zM260.271 359.728a3.694 3.694 0 0 1 2.643 1.04 3.707 3.707 0 0 1 1.132 2.604 3.835 3.835 0 0 1-3.801 3.865 3.948 3.948 0 0 1-3.718-3.776 3.834 3.834 0 0 1 3.744-3.733zM12.172 257.008a3.645 3.645 0 0 1-3.797-3.572 3.716 3.716 0 0 1 2.285-3.547 3.722 3.722 0 0 1 1.458-.288 3.695 3.695 0 0 1 2.628 1.064 3.696 3.696 0 0 1 .832 4.03 3.705 3.705 0 0 1-3.406 2.313zM318.635 314.543a3.764 3.764 0 0 1 3.71 3.71 3.884 3.884 0 0 1-3.941 3.711 3.646 3.646 0 0 1-3.337-2.386 3.628 3.628 0 0 1-.219-1.426 3.75 3.75 0 0 1 3.787-3.609zM174.717 414.145a3.889 3.889 0 0 1-3.78 3.704 3.927 3.927 0 0 1-3.732-3.747 3.782 3.782 0 0 1 3.649-3.755 3.835 3.835 0 0 1 2.722 1.096 3.816 3.816 0 0 1 1.141 2.702zM272.954 414.278a3.667 3.667 0 0 1-2.593-1.095 3.678 3.678 0 0 1-.768-4.013 3.697 3.697 0 0 1 2.007-1.977 3.672 3.672 0 0 1 5.061 3.433 3.668 3.668 0 0 1-1.097 2.593 3.692 3.692 0 0 1-2.61 1.059zM163.607 291.571a3.719 3.719 0 0 1 3.787-3.602 3.857 3.857 0 0 1 3.725 3.747 3.999 3.999 0 0 1-3.743 3.769 3.92 3.92 0 0 1-3.769-3.914zM44.589 323.992a3.863 3.863 0 0 1-3.798-3.841 3.814 3.814 0 0 1 5.303-3.247 3.69 3.69 0 0 1 1.972 2.036c.179.452.267.935.259 1.421a3.564 3.564 0 0 1-2.304 3.404 3.57 3.57 0 0 1-1.432.227zM380.196 195.13a3.865 3.865 0 0 1 3.79 3.645 3.823 3.823 0 0 1-3.648 3.842 3.75 3.75 0 0 1-3.871-3.549 3.883 3.883 0 0 1 3.729-3.938zM169.285 255.592a3.74 3.74 0 0 1 3.751-3.645 3.833 3.833 0 0 1 3.644 3.98 3.691 3.691 0 0 1-3.648 3.536 3.755 3.755 0 0 1-2.695-1.141 3.732 3.732 0 0 1-1.052-2.73zM118.584 288.583a3.912 3.912 0 0 1-2.643-1.232 3.91 3.91 0 0 1-1.052-2.719 3.716 3.716 0 0 1 7.424.283 3.75 3.75 0 0 1-3.729 3.668zM239.878 372.666a3.95 3.95 0 0 1-3.761-3.733 3.833 3.833 0 0 1 3.707-3.747 3.69 3.69 0 0 1 3.805 3.586 3.824 3.824 0 0 1-1.067 2.725 3.821 3.821 0 0 1-2.684 1.169zM196.374 192.214a3.757 3.757 0 0 1 3.696 3.813 3.761 3.761 0 0 1-3.817 3.696 3.854 3.854 0 0 1-3.761-3.703 3.995 3.995 0 0 1 3.882-3.806zM116.284 167.354a3.654 3.654 0 0 1-2.602-1.091 3.638 3.638 0 0 1-1.043-2.62 3.784 3.784 0 0 1 3.685-3.725 3.956 3.956 0 0 1 3.82 3.644 3.84 3.84 0 0 1-1.144 2.696 3.831 3.831 0 0 1-2.716 1.096zM317.13 44.413a3.652 3.652 0 0 1 1.054-2.605 3.642 3.642 0 0 1 2.594-1.084 3.872 3.872 0 0 1 3.645 3.988 3.582 3.582 0 0 1-1.087 2.528 3.569 3.569 0 0 1-2.562 1.008 3.644 3.644 0 0 1-3.644-3.834zM179 111.012a3.74 3.74 0 0 1 3.765-3.645 3.912 3.912 0 0 1 3.739 3.739 3.967 3.967 0 0 1-3.94 3.741 3.718 3.718 0 0 1-3.564-3.835zM285.186 122.178a3.878 3.878 0 0 1-3.769-3.688 3.767 3.767 0 0 1 5.24-3.626 3.75 3.75 0 0 1 2.28 3.625 3.741 3.741 0 0 1-3.751 3.689zM142.363 263.012a3.963 3.963 0 0 1-1.193 2.576 3.963 3.963 0 0 1-2.608 1.121 3.918 3.918 0 0 1-3.71-3.958 3.714 3.714 0 0 1 3.853-3.544 3.843 3.843 0 0 1 3.658 3.805zM327.386 399.7a3.74 3.74 0 0 1-2.702-1.075 3.72 3.72 0 0 1-1.11-2.686 3.785 3.785 0 0 1 3.846-3.588 3.597 3.597 0 0 1 3.681 3.485 3.715 3.715 0 0 1-1.031 2.725 3.715 3.715 0 0 1-2.684 1.139zM246.613 394.896a3.644 3.644 0 0 1-2.137 3.808 3.654 3.654 0 0 1-3.027-.03 3.644 3.644 0 0 1-2.056-3.85 3.65 3.65 0 0 1 2.175-3.453c.442-.194.918-.3 1.401-.309 2.035-.066 3.645 1.596 3.644 3.834zM418.29 170.91a3.764 3.764 0 0 1-3.904 3.609 3.762 3.762 0 0 1-2.612-1.202 3.758 3.758 0 0 1-.996-2.698 3.76 3.76 0 0 1 6.516-2.406 3.752 3.752 0 0 1 .996 2.697zM34.033 175.438a3.652 3.652 0 0 1-3.467-2.224 3.646 3.646 0 0 1-.286-1.421 3.713 3.713 0 0 1 1.1-2.699 3.729 3.729 0 0 1 2.709-1.078 3.697 3.697 0 0 1 3.67 3.721 3.7 3.7 0 0 1-3.726 3.672v.029zM256.079 176.46a3.728 3.728 0 0 1-3.471-2.283 3.725 3.725 0 0 1 2.721-5.098 3.728 3.728 0 0 1 3.831 1.608c.406.618.619 1.344.612 2.084a3.661 3.661 0 0 1-2.274 3.42 3.65 3.65 0 0 1-1.419.269zM48.597 121.077a3.638 3.638 0 0 1-2.625-1.041 3.634 3.634 0 0 1-1.092-2.603 3.757 3.757 0 0 1 7.512-.183 3.79 3.79 0 0 1-2.335 3.535 3.791 3.791 0 0 1-1.46.292zM56.153 173.971a3.755 3.755 0 0 1 3.826 3.601 4.025 4.025 0 0 1-3.612 3.908 3.76 3.76 0 0 1-2.722-1.064 3.77 3.77 0 0 1-.087-5.315 3.729 3.729 0 0 1 2.595-1.13zM163.488 326.083a3.697 3.697 0 0 1-3.715 3.646 3.89 3.89 0 0 1-3.695-3.754 3.806 3.806 0 0 1 3.649-3.763 3.776 3.776 0 0 1 3.505 2.399c.183.469.27.969.256 1.472zM182.426 385.305a3.7 3.7 0 0 1-3.904 3.646 3.948 3.948 0 0 1-3.608-3.645 3.78 3.78 0 0 1 3.7-3.733 3.65 3.65 0 0 1 2.719 1.036 3.632 3.632 0 0 1 1.093 2.696zM306.525 185.205a3.702 3.702 0 0 1-2.744-.991 3.703 3.703 0 0 1-1.183-2.666 3.725 3.725 0 0 1 1.107-2.7 3.72 3.72 0 0 1 2.715-1.072 3.713 3.713 0 0 1 3.644 3.696 3.542 3.542 0 0 1-2.141 3.442c-.441.191-.917.29-1.398.291zM392.447 266.635a3.588 3.588 0 0 1-.95 2.652 3.577 3.577 0 0 1-2.575 1.146 3.528 3.528 0 0 1-2.661-.92 3.515 3.515 0 0 1-1.129-2.579 3.639 3.639 0 0 1 .964-2.763 3.654 3.654 0 0 1 2.685-1.167 3.58 3.58 0 0 1 3.666 3.631zM62.959 265.834a3.646 3.646 0 0 1-4.391 3.518 3.64 3.64 0 0 1-2.836-2.876 3.645 3.645 0 0 1 1.561-3.727 3.651 3.651 0 0 1 2.021-.611 3.733 3.733 0 0 1 3.645 3.696zM414.656 272.669a3.643 3.643 0 0 1-1.026 2.596 3.648 3.648 0 0 1-5.967-1.081 3.633 3.633 0 0 1-.3-1.39 3.568 3.568 0 0 1 1.008-2.725 3.595 3.595 0 0 1 2.699-1.081 3.528 3.528 0 0 1 2.591 1.063 3.509 3.509 0 0 1 .995 2.618zM195.306 379.809a3.837 3.837 0 0 1 3.759-3.704 3.682 3.682 0 0 1 3.753 3.644 3.829 3.829 0 0 1-3.787 3.857 4.01 4.01 0 0 1-3.725-3.797zM299.667 270.795a3.644 3.644 0 0 1 3.776 3.579 3.71 3.71 0 0 1-3.591 3.791 3.685 3.685 0 0 1-2.854-6.27 3.69 3.69 0 0 1 2.669-1.1zM219.557 370.645a3.704 3.704 0 0 1 3.645 3.725 3.83 3.83 0 0 1-3.89 3.755 3.941 3.941 0 0 1-3.644-3.856 3.85 3.85 0 0 1 1.217-2.592 3.852 3.852 0 0 1 2.672-1.032zM360.621 87.95a3.647 3.647 0 0 1-3.776-3.74 3.55 3.55 0 0 1 3.568-3.573 3.842 3.842 0 0 1 3.915 3.696 3.596 3.596 0 0 1-1.088 2.593 3.6 3.6 0 0 1-2.619 1.023zM429.239 191.241a3.582 3.582 0 0 1 .979-2.718 3.572 3.572 0 0 1 2.67-1.103 3.518 3.518 0 0 1 3.405 2.228c.177.451.258.933.24 1.417a3.652 3.652 0 0 1-3.569 3.726 3.648 3.648 0 0 1-3.725-3.565v.015zM411.78 194.657a3.643 3.643 0 0 1-1.01 2.602 3.645 3.645 0 0 1-2.554 1.127 3.642 3.642 0 0 1-3.729-3.56 3.651 3.651 0 0 1 3.565-3.73 3.651 3.651 0 0 1 3.419 2.173c.194.438.299.909.309 1.388zM225.742 66.417a3.562 3.562 0 0 1 3.469 3.842 3.74 3.74 0 0 1-6.526 2.258 3.728 3.728 0 0 1-.934-2.702 3.77 3.77 0 0 1 3.991-3.398zM324.587 195.898a4.052 4.052 0 0 1-3.714 3.806 3.9 3.9 0 0 1-3.783-3.696 3.7 3.7 0 0 1 2.291-3.541 3.708 3.708 0 0 1 1.459-.28 3.803 3.803 0 0 1 3.747 3.711zM196.136 316.737a3.711 3.711 0 0 1 2.601 1.128 3.693 3.693 0 0 1 1.04 2.637 3.712 3.712 0 0 1-3.769 3.642 3.718 3.718 0 0 1-3.644-3.776 3.691 3.691 0 0 1 3.772-3.631zM204.841 291.185a3.545 3.545 0 0 1-3.414-2.195 3.567 3.567 0 0 1-.267-1.406 3.766 3.766 0 0 1 6.363-2.553 3.76 3.76 0 0 1 1.157 2.553c.05 2.194-1.41 3.572-3.839 3.601zM382.337 294.443a3.64 3.64 0 0 1-3.717-3.645 3.832 3.832 0 0 1 3.7-3.908 4.006 4.006 0 0 1 3.79 3.681 3.81 3.81 0 0 1-1.078 2.723 3.8 3.8 0 0 1-2.695 1.149zM281.029 331.964a3.642 3.642 0 0 1-3.571-3.717 3.65 3.65 0 0 1 3.721-3.573 3.713 3.713 0 0 1 3.645 3.543 3.762 3.762 0 0 1-3.795 3.747zM109.961 201.226c0 .484-.097.964-.285 1.41a3.628 3.628 0 0 1-.808 1.191 3.665 3.665 0 0 1-2.621 1.045 3.565 3.565 0 0 1-2.624-1.058 3.567 3.567 0 0 1-1.021-2.638 3.763 3.763 0 0 1 3.649-3.769 3.64 3.64 0 0 1 3.479 2.355c.177.467.255.965.231 1.464zM132.484 302.11a3.65 3.65 0 0 1-3.87-2.016 3.635 3.635 0 0 1 .838-4.282 3.66 3.66 0 0 1 2.882-.92 3.733 3.733 0 0 1 3.791 3.587 3.546 3.546 0 0 1-2.236 3.379 3.558 3.558 0 0 1-1.405.252zM36.874 253.343a3.657 3.657 0 0 1-2.626-1.042 3.636 3.636 0 0 1-1.092-2.603 3.726 3.726 0 0 1 3.649-3.755 3.855 3.855 0 0 1 3.856 3.761 3.8 3.8 0 0 1-3.787 3.639zM245.676 421.515a3.683 3.683 0 0 1-3.746-3.805 3.806 3.806 0 0 1 3.925-3.514 3.598 3.598 0 0 1 3.601 3.754 3.64 3.64 0 0 1-1.144 2.573 3.65 3.65 0 0 1-2.636.992zM252.435 248.428a3.717 3.717 0 0 1-3.648 3.74 3.758 3.758 0 0 1-3.798-3.645c-.05-1.917 1.935-3.944 3.802-3.871a3.749 3.749 0 0 1 3.644 3.776zM363.084 358.969a3.76 3.76 0 0 1 3.702 3.717 3.871 3.871 0 0 1-3.955 3.704 3.65 3.65 0 0 1-2.582-1.164 3.637 3.637 0 0 1-.967-2.663 3.742 3.742 0 0 1 3.802-3.594zM420.415 147.72a3.688 3.688 0 0 1-2.717-1.045 3.687 3.687 0 0 1-1.117-2.687 3.552 3.552 0 0 1 1.045-2.602 3.564 3.564 0 0 1 2.604-1.044 3.843 3.843 0 0 1 3.79 3.645 3.648 3.648 0 0 1-3.605 3.733zM173.344 343.379a3.74 3.74 0 0 1-3.55-3.834 3.688 3.688 0 0 1 4.006-3.529 3.803 3.803 0 0 1 3.491 3.914 3.761 3.761 0 0 1-3.947 3.449zM342.452 243.297a3.765 3.765 0 0 1-1.084 2.739 3.749 3.749 0 0 1-2.728 1.116 3.75 3.75 0 0 1-3.693-3.964 3.831 3.831 0 0 1 1.188-2.587 3.832 3.832 0 0 1 2.643-1.058 3.75 3.75 0 0 1 3.674 3.754zM395.201 246.446a3.737 3.737 0 0 1-3.732-3.645 3.78 3.78 0 0 1 3.699-3.719 3.66 3.66 0 0 1 2.709 1.055 3.648 3.648 0 0 1 1.074 2.699 3.696 3.696 0 0 1-3.75 3.61zM144.197 416.121a3.717 3.717 0 0 1 2.664 6.331 3.722 3.722 0 0 1-4.084.816 3.733 3.733 0 0 1-2.301-3.545 3.546 3.546 0 0 1 3.721-3.602zM28.397 300.389a3.645 3.645 0 0 1-5.098 3.449 3.8 3.8 0 0 1-2.028-2.08 3.79 3.79 0 0 1-.27-1.456 3.537 3.537 0 0 1 3.715-3.646 3.655 3.655 0 0 1 2.633 1.085 3.65 3.65 0 0 1 1.048 2.648zM298.908 128.467a3.76 3.76 0 0 1 3.739 3.681 3.702 3.702 0 0 1-1.089 2.624 3.718 3.718 0 0 1-4.046.805 3.706 3.706 0 0 1-2.007-2.008 3.686 3.686 0 0 1-.282-1.42 3.632 3.632 0 0 1 1.069-2.615 3.65 3.65 0 0 1 2.616-1.067zM280.716 361.741a3.9 3.9 0 0 1-3.783-3.696 3.822 3.822 0 0 1 3.649-3.784 3.739 3.739 0 0 1 3.849 3.557 3.868 3.868 0 0 1-3.715 3.923zM198.338 49.647a3.759 3.759 0 0 1 1.086-2.685 3.759 3.759 0 0 1 2.672-1.12 4.032 4.032 0 0 1 3.754 3.717 3.932 3.932 0 0 1-3.875 3.77 3.64 3.64 0 0 1-3.637-3.682zM325.278 346.986a4.007 4.007 0 0 1-1.181 2.671 4.01 4.01 0 0 1-2.679 1.164 3.859 3.859 0 0 1-2.57-1.177 3.859 3.859 0 0 1-1.075-2.613 3.765 3.765 0 0 1 6.349-2.591 3.76 3.76 0 0 1 1.171 2.546h-.015zM392.749 354.13a3.65 3.65 0 0 1-7.293.343 3.604 3.604 0 0 1 .931-2.756 3.59 3.59 0 0 1 2.667-1.167 3.528 3.528 0 0 1 3.695 3.58zM61.876 308.742a3.589 3.589 0 0 1 3.649-3.689 3.717 3.717 0 0 1 3.783 3.645 3.81 3.81 0 0 1-3.59 3.813 3.726 3.726 0 0 1-2.729-1.062 3.713 3.713 0 0 1-1.113-2.707zM304.866 352.446a3.784 3.784 0 0 1-.23 1.491 3.784 3.784 0 0 1-2.033 2.147 3.767 3.767 0 0 1-4.201-.834 3.747 3.747 0 0 1-1.056-2.759c.031-.98.437-1.91 1.136-2.598a3.811 3.811 0 0 1 2.615-1.098 3.758 3.758 0 0 1 3.769 3.651zM215.661 224.965a3.708 3.708 0 0 1-3.554 3.821 3.77 3.77 0 0 1-3.798-3.601 3.643 3.643 0 0 1 2.201-3.568c.457-.196.95-.297 1.448-.297a3.653 3.653 0 0 1 2.616 1.047 3.639 3.639 0 0 1 1.087 2.598zM106.087 71.645a3.67 3.67 0 0 1 2.356 6.364 3.678 3.678 0 0 1-5.193-.196 3.673 3.673 0 0 1 .199-5.19 3.678 3.678 0 0 1 2.638-.978zM205.881 351.981a3.643 3.643 0 0 1-3.645-3.645 3.787 3.787 0 0 1 3.838-3.565 3.647 3.647 0 0 1 2.602 1.054 3.638 3.638 0 0 1 1.079 2.59c-.023 2.122-1.599 3.587-3.874 3.566zM343.818 228.223a3.654 3.654 0 0 1-1.409-.267 3.655 3.655 0 0 1-2.006-1.97 3.661 3.661 0 0 1-.024-2.812 3.691 3.691 0 0 1 1.973-2.007 3.665 3.665 0 0 1 2.813-.025 3.67 3.67 0 0 1 1.243 5.982 3.688 3.688 0 0 1-2.59 1.099zM129.493 232.576a3.655 3.655 0 0 1-2.628-1.008 3.642 3.642 0 0 1-1.126-2.579 3.696 3.696 0 0 1 1.007-2.631 3.696 3.696 0 0 1 2.569-1.16 3.69 3.69 0 0 1 3.78 3.597 3.697 3.697 0 0 1-3.602 3.781zM107.727 310.579a3.715 3.715 0 0 1-3.518 3.857 3.842 3.842 0 0 1-3.863-3.754 3.688 3.688 0 0 1 2.233-3.44 3.69 3.69 0 0 1 4.848 1.929c.191.445.293.923.3 1.408zM249.987 230.453a3.564 3.564 0 0 1 2.355-3.444 3.547 3.547 0 0 1 1.462-.201 3.641 3.641 0 0 1 3.425 3.717 3.742 3.742 0 0 1-1.099 2.689 3.77 3.77 0 0 1-2.688 1.103 3.658 3.658 0 0 1-2.535-1.211 3.638 3.638 0 0 1-.92-2.653zM232.993 223.048a3.675 3.675 0 1 1 .136-7.349 3.747 3.747 0 0 1 3.644 3.762 3.656 3.656 0 0 1-1.136 2.587 3.638 3.638 0 0 1-2.644 1zM86.734 55.667a3.646 3.646 0 0 1 3.707-3.645 3.647 3.647 0 0 1 3.477 2.367c.175.468.252.967.225 1.467a3.83 3.83 0 0 1-3.816 3.602 3.69 3.69 0 0 1-3.593-3.79zM310.245 231.532a3.681 3.681 0 0 1 2.624 1.008 3.681 3.681 0 0 1 1.151 2.564 3.753 3.753 0 0 1-3.72 3.949 3.743 3.743 0 0 1-2.722-1.133 3.756 3.756 0 0 1-1.062-2.75 3.712 3.712 0 0 1 3.729-3.638zM208.828 75.733a3.74 3.74 0 0 1-7.46-.466 3.792 3.792 0 0 1 3.998-3.397 3.592 3.592 0 0 1 2.559 1.19 3.59 3.59 0 0 1 .903 2.673zM166.528 217.901a3.57 3.57 0 0 1-2.306 3.503 3.574 3.574 0 0 1-1.466.223 3.506 3.506 0 0 1-2.586-1.102 3.497 3.497 0 0 1-.949-2.645 3.644 3.644 0 0 1 3.648-3.645 3.574 3.574 0 0 1 2.615 1.05 3.562 3.562 0 0 1 1.044 2.616zM315.602 211.845a3.555 3.555 0 0 1 3.368 2.275c.173.45.252.931.233 1.413a3.64 3.64 0 0 1-2.206 3.4 3.662 3.662 0 0 1-2.791.039 3.649 3.649 0 0 1-2-1.945 3.634 3.634 0 0 1-.296-1.391 3.6 3.6 0 0 1 .221-1.46 3.608 3.608 0 0 1 2.017-2.071 3.603 3.603 0 0 1 1.454-.26zM218.546 214.388a3.759 3.759 0 0 1-6.331 2.885 3.756 3.756 0 0 1-.925-4.085 3.766 3.766 0 0 1 3.436-2.401 3.771 3.771 0 0 1 3.82 3.601zM73.869 225.14a3.647 3.647 0 0 1-7.293.103 3.773 3.773 0 0 1 1.04-2.713 3.778 3.778 0 0 1 2.66-1.173 3.698 3.698 0 0 1 3.593 3.783zM266.146 62.833a3.673 3.673 0 0 1-3.469-3.863 3.669 3.669 0 0 1 3.867-3.47 3.674 3.674 0 0 1 3.47 3.862 3.669 3.669 0 0 1-3.868 3.47zM181.734 309.757a3.647 3.647 0 0 1-3.428-2.235 3.649 3.649 0 0 1-.283-1.41 3.592 3.592 0 0 1 3.759-3.755 3.656 3.656 0 0 1 2.606 1.096 3.644 3.644 0 0 1 1.038 2.629 3.566 3.566 0 0 1-1.052 2.635 3.577 3.577 0 0 1-2.64 1.04zM258.494 208.922a3.549 3.549 0 0 1 3.528 3.762 3.65 3.65 0 0 1-6.314 2.366 3.637 3.637 0 0 1-.979-2.613c.003-.482.105-.958.298-1.4a3.56 3.56 0 0 1 2.05-1.913 3.558 3.558 0 0 1 1.417-.202zM255.137 308.313a3.645 3.645 0 0 1-3.645-3.644 3.647 3.647 0 0 1 3.649-3.646 3.643 3.643 0 0 1 2.575 6.222 3.65 3.65 0 0 1-2.579 1.068zM373.111 338.598a3.754 3.754 0 0 1-1.038 2.72 3.759 3.759 0 0 1-2.669 1.166 3.71 3.71 0 0 1-3.608-3.769 3.651 3.651 0 0 1 3.649-3.754 3.65 3.65 0 0 1 2.59 1.057 3.632 3.632 0 0 1 1.076 2.58zM153.896 66.135a3.647 3.647 0 0 1-1.083-7.074c.45-.164.929-.237 1.408-.216a3.643 3.643 0 0 1 3.535 3.645 3.704 3.704 0 0 1-2.408 3.416 3.699 3.699 0 0 1-1.452.23zM72.056 204.812a3.807 3.807 0 0 1 3.758-3.85 3.706 3.706 0 0 1 3.528 3.835 3.646 3.646 0 0 1-3.649 3.645 3.643 3.643 0 0 1-3.645-3.644l.008.014zM53.469 201.685a3.714 3.714 0 0 1-3.649 3.733 3.778 3.778 0 0 1-3.761-3.645 3.648 3.648 0 0 1 3.78-3.777 3.645 3.645 0 0 1 3.63 3.689zM230.819 256.943a3.644 3.644 0 0 1-2.498-6.191 3.656 3.656 0 0 1 3.896-.864 3.635 3.635 0 0 1 2.352 3.219 3.72 3.72 0 0 1-2.292 3.548 3.725 3.725 0 0 1-1.458.288zM188.401 81.004a3.645 3.645 0 0 1-3.648 3.645 3.688 3.688 0 0 1-2.706-1.053 3.678 3.678 0 0 1-1.099-2.686 3.776 3.776 0 0 1 3.823-3.587 3.55 3.55 0 0 1 3.63 3.681zM215.899 311.629a3.6 3.6 0 0 1 3.645 3.644 3.77 3.77 0 0 1-3.809 3.602 3.64 3.64 0 0 1-3.696-3.644c.023-2.195 1.534-3.617 3.86-3.602zM121.372 141.2a3.55 3.55 0 0 1 2.61 1.036 3.549 3.549 0 0 1 1.035 2.609 3.811 3.811 0 0 1-3.736 3.872 3.727 3.727 0 0 1-3.565-3.806 3.606 3.606 0 0 1 3.656-3.711zM245.873 68.27c-2.064.08-3.646-1.399-3.739-3.797-.087-1.925 1.832-3.544 3.882-3.522a3.57 3.57 0 0 1 3.381 2.301c.172.454.249.939.227 1.424a3.647 3.647 0 0 1-3.751 3.594zM254.047 91.004a3.662 3.662 0 0 1 1.057-2.601 3.646 3.646 0 0 1 2.592-1.081 3.717 3.717 0 0 1 3.754 3.645 3.778 3.778 0 0 1-3.598 3.813 3.72 3.72 0 0 1-3.532-2.315 3.73 3.73 0 0 1-.273-1.461zM309.228 61.768a3.69 3.69 0 0 1 3.366 2.358 3.681 3.681 0 0 1-.909 4.01 3.692 3.692 0 0 1-5.67-.734 3.687 3.687 0 0 1-.552-2.076 3.568 3.568 0 0 1 1.113-2.593 3.557 3.557 0 0 1 2.652-.965zM66.315 153.585a3.746 3.746 0 0 1-2.242 3.578 3.74 3.74 0 0 1-1.45.315 3.759 3.759 0 0 1-2.658-6.421 3.764 3.764 0 0 1 2.661-1.102 3.655 3.655 0 0 1 2.602 1.047 3.637 3.637 0 0 1 1.087 2.583zM243.805 156.756a3.534 3.534 0 0 1-2.186 3.437 3.552 3.552 0 0 1-1.411.267 3.645 3.645 0 0 1-2.656-6.189 3.65 3.65 0 0 1 2.565-1.102c.48-.015.959.066 1.407.239a3.587 3.587 0 0 1 2.004 1.949c.185.443.28.919.277 1.399zM111.356 178.723a3.634 3.634 0 0 1 2.616 1.046 3.657 3.657 0 0 1 1.087 2.598 3.942 3.942 0 0 1-3.649 3.828 4.087 4.087 0 0 1-3.834-3.863 3.754 3.754 0 0 1 3.78-3.609zM226.723 285.455a3.642 3.642 0 0 1-3.645-3.645 3.647 3.647 0 0 1 3.649-3.646 3.702 3.702 0 0 1 3.841 3.528 3.75 3.75 0 0 1-1.13 2.692 3.767 3.767 0 0 1-2.715 1.071zM77.861 280.892a3.648 3.648 0 0 1-3.648 3.646 3.809 3.809 0 0 1-3.644-3.762 3.671 3.671 0 0 1 3.724-3.62 3.671 3.671 0 0 1 3.62 3.721l-.052.015zM118.923 321.855a3.76 3.76 0 0 1 2.706 6.265 3.766 3.766 0 0 1-2.492 1.244 3.894 3.894 0 0 1-3.877-3.754 3.75 3.75 0 0 1 3.663-3.755zM156.631 277.284a3.542 3.542 0 0 1-2.185 3.437 3.526 3.526 0 0 1-1.412.267 3.69 3.69 0 0 1-3.486-2.207 3.688 3.688 0 0 1 .734-4.061 3.695 3.695 0 0 1 6.349 2.564zM34.144 273.646a3.675 3.675 0 0 1-3.656 3.696 3.673 3.673 0 0 1-1.444-7.06 3.686 3.686 0 0 1 2.813-.017 3.676 3.676 0 0 1 2.287 3.381zM248.599 279.602a3.543 3.543 0 0 1-2.645-.978 3.533 3.533 0 0 1-1.087-2.602 3.597 3.597 0 0 1 1.013-2.622 3.593 3.593 0 0 1 2.592-1.089 3.65 3.65 0 0 1 3.574 2.196c.197.458.298.951.297 1.449a3.714 3.714 0 0 1-3.744 3.646zM86.675 167.706a3.538 3.538 0 0 1-3.644-3.645 3.793 3.793 0 0 1 3.736-3.864 3.703 3.703 0 0 1 3.55 3.812 3.59 3.59 0 0 1-3.642 3.697zM365.554 118.139a3.57 3.57 0 0 1-1.026 2.636 3.569 3.569 0 0 1-2.622 1.061 3.732 3.732 0 1 1 .004-7.465 3.754 3.754 0 0 1 3.644 3.768zM145.295 117.534a3.644 3.644 0 0 1 3.644 3.644 3.777 3.777 0 0 1-3.809 3.595 3.646 3.646 0 0 1-3.579-3.71 3.65 3.65 0 0 1 3.715-3.58l.029.051zM175.781 33.968a3.814 3.814 0 0 1-3.794 3.646 3.714 3.714 0 0 1-2.591-1.182 3.722 3.722 0 0 1 2.857-6.255 3.596 3.596 0 0 1 3.32 2.37c.164.455.235.938.208 1.421zM108.584 271.212a3.563 3.563 0 0 1-3.736 3.573 3.634 3.634 0 0 1-2.678-1.161 3.64 3.64 0 0 1-.967-2.753 3.607 3.607 0 0 1 3.649-3.5 3.74 3.74 0 0 1 2.679 1.131 3.728 3.728 0 0 1 1.053 2.71zM93.963 123.162a3.725 3.725 0 0 1 3.685-3.703 3.635 3.635 0 0 1 3.415 2.445c.164.471.23.971.193 1.469a3.616 3.616 0 0 1-1.126 2.574 3.606 3.606 0 0 1-2.632.984 3.539 3.539 0 0 1-2.587-1.116 3.544 3.544 0 0 1-.948-2.653zM354.575 392.412a3.682 3.682 0 1 1 1.49-7.068 3.673 3.673 0 0 1 1.971 2.014c.179.449.269.928.264 1.412a3.699 3.699 0 0 1-1.109 2.592 3.686 3.686 0 0 1-2.616 1.05zM81.18 188.092a3.558 3.558 0 0 1-3.644-3.645 3.771 3.771 0 0 1 3.59-3.849 3.646 3.646 0 0 1 3.473 2.357c.176.467.254.964.23 1.462a3.59 3.59 0 0 1-3.648 3.675zM385.413 381.477a3.676 3.676 0 0 1-3.758 3.595 3.674 3.674 0 0 1-3.594-3.754 3.829 3.829 0 0 1 3.802-3.646 3.638 3.638 0 0 1 2.575 1.158 3.633 3.633 0 0 1 .975 2.647zM277.731 30.308a3.645 3.645 0 0 1-2.196 3.44 3.648 3.648 0 0 1-1.402.3 3.651 3.651 0 0 1-2.727-1.035 3.647 3.647 0 0 1-1.092-2.704 3.817 3.817 0 0 1 3.729-3.645 3.682 3.682 0 0 1 3.688 3.644zM281.344 152.797a3.558 3.558 0 0 1-1.045 2.602 3.564 3.564 0 0 1-2.604 1.043 3.69 3.69 0 0 1-3.677-4.404 3.702 3.702 0 0 1 5.069-2.697 3.694 3.694 0 0 1 2.257 3.456zM300.76 28.241a3.642 3.642 0 0 1-3.644-3.645 3.575 3.575 0 0 1 1.052-2.594 3.586 3.586 0 0 1 2.596-1.05 3.84 3.84 0 0 1 3.812 3.812 3.646 3.646 0 0 1-3.816 3.478zM166.541 145.006a3.709 3.709 0 0 1 3.648-3.704 3.769 3.769 0 0 1 2.667 1.154c.345.359.615.784.794 1.25.18.465.264.961.249 1.46a3.696 3.696 0 0 1-7.387-.16h.029zM85.451 295.653a3.718 3.718 0 0 1 3.736-3.646 3.765 3.765 0 0 1 2.649 1.209 3.77 3.77 0 0 1 .996 2.735 3.646 3.646 0 0 1-3.649 3.558 3.824 3.824 0 0 1-3.732-3.856zM91.243 260.943a3.555 3.555 0 0 1-3.783-3.644 3.71 3.71 0 0 1 3.787-3.588 3.775 3.775 0 0 1 3.717 3.689 3.648 3.648 0 0 1-3.72 3.543zM278.33 299.368a3.555 3.555 0 0 1-.944 2.64 3.528 3.528 0 0 1-1.167.829 3.53 3.53 0 0 1-1.399.301 3.647 3.647 0 0 1-2.621-1.044 3.638 3.638 0 0 1-1.089-2.601 3.702 3.702 0 0 1 1.03-2.708 3.726 3.726 0 0 1 2.662-1.149c2.115.015 3.5 1.487 3.528 3.732zM205.166 106.208a3.733 3.733 0 0 1-1.209 2.577 3.711 3.711 0 0 1-2.677.97 3.718 3.718 0 0 1-3.546-3.882 3.882 3.882 0 0 1 3.926-3.521 3.686 3.686 0 0 1 3.506 3.856zM407.356 299.747a3.637 3.637 0 0 1-.957 2.65 3.641 3.641 0 0 1-2.56 1.178 3.503 3.503 0 0 1-2.67-.907 3.497 3.497 0 0 1-1.142-2.577 3.733 3.733 0 0 1 .96-2.748 3.76 3.76 0 0 1 2.637-1.233 3.65 3.65 0 0 1 2.632 1.033 3.627 3.627 0 0 1 1.1 2.604zM250.019 11.936a3.648 3.648 0 0 1 3.736-3.61 3.593 3.593 0 0 1 3.645 3.864 3.718 3.718 0 0 1-5.245 3.228 3.638 3.638 0 0 1-2.136-3.482zM248.935 199.425a3.595 3.595 0 0 1-3.561 3.762 3.629 3.629 0 0 1-2.707-1.047 3.622 3.622 0 0 1-.821-1.233 3.625 3.625 0 0 1-.262-1.459 3.525 3.525 0 0 1 2.234-3.401c.45-.178.931-.261 1.415-.245a3.652 3.652 0 0 1 3.414 2.221c.188.444.286.92.288 1.402zM352.47 205.759a3.642 3.642 0 0 1-2.298 3.32 3.648 3.648 0 0 1-4.929-2.698 3.647 3.647 0 1 1 7.227-.622zM68.433 245.41a3.71 3.71 0 0 1-3.7 3.857 3.644 3.644 0 0 1-3.644-3.528 3.807 3.807 0 0 1 3.648-3.995 3.753 3.753 0 0 1 3.696 3.666zM191.417 217.581a3.65 3.65 0 0 1-2.621-1.044 3.638 3.638 0 0 1-1.089-2.601 3.904 3.904 0 0 1 3.649-3.835 3.988 3.988 0 0 1 3.856 3.645 3.76 3.76 0 0 1-1.084 2.722 3.753 3.753 0 0 1-2.711 1.113zM80.754 360.012a3.558 3.558 0 0 1 2.293-3.379 3.57 3.57 0 0 1 1.422-.23 3.645 3.645 0 0 1 3.644 3.703 3.686 3.686 0 0 1-1.044 2.636c-.339.349-.743.627-1.19.82a3.7 3.7 0 0 1-1.415.299 3.797 3.797 0 0 1-3.71-3.849zM233.857 229.965a3.692 3.692 0 0 1-7.171 1.262 3.67 3.67 0 0 1-.202-1.458 3.86 3.86 0 0 1 3.648-3.645 3.65 3.65 0 0 1 3.5 2.367c.176.47.252.972.225 1.474zM104.9 219.884a3.647 3.647 0 0 1-7.23.675 3.643 3.643 0 0 1 1.602-3.734 3.642 3.642 0 0 1 2.042-.586 3.492 3.492 0 0 1 2.583 1.046 3.489 3.489 0 0 1 1.003 2.599zM379.491 139.365a3.634 3.634 0 0 1-2.705-1.052 3.648 3.648 0 0 1-1.078-2.694 3.54 3.54 0 0 1 1.065-2.609 3.524 3.524 0 0 1 2.635-1.001 3.653 3.653 0 0 1 3.421 2.237c.186.446.282.925.282 1.408a3.553 3.553 0 0 1-1.011 2.634 3.566 3.566 0 0 1-2.609 1.077zM92.082 147.318a3.538 3.538 0 0 1-3.571-3.732 3.705 3.705 0 0 1 3.648-3.733 3.64 3.64 0 0 1 2.659 1.144 3.646 3.646 0 0 1 .986 2.72 3.59 3.59 0 0 1-3.722 3.601zM298.086 294.142a3.566 3.566 0 0 1-1.122 2.701 3.56 3.56 0 0 1-2.767.945 3.506 3.506 0 0 1-2.511-1.109 3.504 3.504 0 0 1-.937-2.58 3.557 3.557 0 0 1 2.279-3.41 3.57 3.57 0 0 1 1.428-.235 3.493 3.493 0 0 1 3.63 3.688zM48.04 287.51a3.59 3.59 0 0 1 2.594 1.052 3.598 3.598 0 0 1 1.051 2.593 3.516 3.516 0 0 1-3.802 3.646 3.597 3.597 0 0 1-3.557-3.769 3.493 3.493 0 0 1 3.715-3.522zM325.048 280.68a3.55 3.55 0 0 1 1.038-2.609 3.537 3.537 0 0 1 2.61-1.037 3.604 3.604 0 0 1 3.351 2.312c.172.451.252.931.236 1.413a3.78 3.78 0 0 1-3.81 3.784 3.65 3.65 0 0 1-2.515-1.22 3.626 3.626 0 0 1-.91-2.643zM82.051 85.435a3.5 3.5 0 0 1-3.717-3.565 3.545 3.545 0 0 1 3.707-3.777 3.494 3.494 0 0 1 3.412 2.225c.175.452.254.936.233 1.42a3.565 3.565 0 0 1-2.218 3.433c-.45.183-.931.273-1.417.264zM299.778 326.93a3.647 3.647 0 0 1-3.321-2.295 3.642 3.642 0 0 1 .835-3.95 3.646 3.646 0 0 1 6.2 2.599 3.509 3.509 0 0 1-1.05 2.644 3.518 3.518 0 0 1-2.664 1.002zM167.973 86.557a3.724 3.724 0 0 1-6.452 2.387 3.72 3.72 0 0 1-.987-2.67 3.748 3.748 0 0 1 3.896-3.486 3.566 3.566 0 0 1 3.543 3.769zM357.468 186.952a3.65 3.65 0 0 1-2.182 3.41 3.65 3.65 0 0 1-3.987-.704 3.644 3.644 0 0 1 .428-5.615 3.65 3.65 0 0 1 2.009-.663 3.57 3.57 0 0 1 3.448 2.166c.189.445.286.923.284 1.406zM312.71 142.221a3.588 3.588 0 0 1 3.401 2.281c.176.452.259.936.243 1.422a3.54 3.54 0 0 1-3.649 3.645 3.651 3.651 0 0 1-2.676-1.096 3.64 3.64 0 0 1-1.034-2.701 3.511 3.511 0 0 1 1.082-2.586 3.5 3.5 0 0 1 2.633-.965zM212.806 261.708a3.65 3.65 0 0 1-3.381-2.28 3.655 3.655 0 0 1-.264-1.409 3.561 3.561 0 0 1 1.041-2.606 3.563 3.563 0 0 1 2.608-1.039 3.643 3.643 0 0 1 2.575 6.222 3.648 3.648 0 0 1-2.579 1.068v.044zM308.683 254.761a3.602 3.602 0 0 1-.968 2.644 3.605 3.605 0 0 1-2.579 1.133 3.696 3.696 0 0 1-3.589-2.183 3.69 3.69 0 0 1 .774-4.13 3.699 3.699 0 0 1 2.695-1.072 3.473 3.473 0 0 1 2.63.996 3.479 3.479 0 0 1 1.037 2.612zM258.621 333.372a3.682 3.682 0 0 1 3.62-3.733 3.662 3.662 0 0 1 2.616 1.034 3.67 3.67 0 0 1 1.116 2.581 3.634 3.634 0 0 1-.968 2.638 3.652 3.652 0 0 1-2.557 1.168 3.643 3.643 0 0 1-3.827-3.688zM124.131 252.218a3.69 3.69 0 0 1-3.688-3.689 3.69 3.69 0 0 1 3.693-3.689 3.565 3.565 0 0 1 3.484 2.336c.172.47.244.97.211 1.469a3.505 3.505 0 0 1-2.283 3.357 3.525 3.525 0 0 1-1.417.216zM272.585 248.296a3.652 3.652 0 0 1 3.649-3.689 3.556 3.556 0 0 1 2.636.996 3.53 3.53 0 0 1 1.074 2.605 3.735 3.735 0 0 1-3.561 3.835 3.655 3.655 0 0 1-2.715-1.047 3.648 3.648 0 0 1-1.083-2.7zM135.813 375.303a3.584 3.584 0 0 1 2.627 1.033 3.594 3.594 0 0 1 1.069 2.612 3.505 3.505 0 0 1-2.157 3.468c-.45.186-.933.276-1.419.265a3.6 3.6 0 0 1-3.531-2.259 3.6 3.6 0 0 1-.252-1.459 3.492 3.492 0 0 1 1.025-2.636 3.512 3.512 0 0 1 2.638-1.024zM199.848 248.618a3.65 3.65 0 0 1-3.54-2.272 3.67 3.67 0 0 1-.265-1.46 3.512 3.512 0 0 1 .976-2.563 3.515 3.515 0 0 1 2.52-1.083 3.786 3.786 0 0 1 2.738.996 3.782 3.782 0 0 1 1.213 2.649 3.679 3.679 0 0 1-1.047 2.621 3.675 3.675 0 0 1-2.595 1.112zM239.056 92.373a3.649 3.649 0 0 1 3.291 2.364 3.636 3.636 0 0 1-.097 2.79 3.646 3.646 0 0 1-3.446 2.136 3.649 3.649 0 0 1-3.521-3.769 3.666 3.666 0 0 1 1.157-2.54 3.66 3.66 0 0 1 2.616-.981zM160.682 239.812a3.542 3.542 0 0 1-3.649 3.646 3.645 3.645 0 0 1-3.644-3.645 3.642 3.642 0 0 1 2.273-3.355 3.652 3.652 0 0 1 3.969.814 3.638 3.638 0 0 1 1.051 2.584v-.044zM126.373 129.854a3.65 3.65 0 0 1-3.321-2.317 3.648 3.648 0 0 1 6.47-3.293c.388.607.588 1.316.573 2.037a3.543 3.543 0 0 1-2.304 3.352 3.57 3.57 0 0 1-1.418.221zM223.301 232.785a3.7 3.7 0 0 1-3.649 3.704 3.84 3.84 0 0 1-2.568-1.164 3.837 3.837 0 0 1-1.076-2.605 3.651 3.651 0 0 1 3.681-3.613 3.646 3.646 0 0 1 3.612 3.678zM294.692 381.886a3.584 3.584 0 0 1-1.059 2.706 3.593 3.593 0 0 1-2.714 1.041 3.672 3.672 0 0 1-3.651-3.703 3.668 3.668 0 0 1 1.097-2.593 3.692 3.692 0 0 1 2.61-1.06 3.594 3.594 0 0 1 3.439 2.198c.187.447.282.927.278 1.411zM225.952 46.84a3.492 3.492 0 0 1-3.644-3.644 3.699 3.699 0 0 1 1.076-2.7 3.714 3.714 0 0 1 2.692-1.094 3.707 3.707 0 0 1 2.653 1.184 3.712 3.712 0 0 1 .981 2.733 3.575 3.575 0 0 1-1.134 2.555 3.585 3.585 0 0 1-2.624.967zM46.98 225.577a3.65 3.65 0 0 1-6.21 2.637 3.641 3.641 0 0 1-.809-3.977 3.651 3.651 0 0 1 3.375-2.261 3.48 3.48 0 0 1 2.61 1.004 3.484 3.484 0 0 1 1.034 2.597zM249.021 120.332a3.644 3.644 0 0 1 .376 7.245 3.649 3.649 0 0 1-3.668-1.711 3.643 3.643 0 0 1-.524-2.048 3.557 3.557 0 0 1 1.161-2.56 3.56 3.56 0 0 1 2.655-.926zM218.205 166.291a3.51 3.51 0 0 1-2.616-1.029 3.518 3.518 0 0 1-1.028-2.615 3.578 3.578 0 0 1 2.367-3.445 3.574 3.574 0 0 1 1.464-.201 3.515 3.515 0 0 1 2.592 1.089 3.5 3.5 0 0 1 .957 2.643c.002.483-.095.961-.285 1.405a3.565 3.565 0 0 1-2.034 1.936 3.544 3.544 0 0 1-1.417.217zM295.287 47.882a3.53 3.53 0 0 1-3.649 3.69 3.59 3.59 0 0 1-3.508-2.304 3.591 3.591 0 0 1-.231-1.465 3.54 3.54 0 0 1 1.056-2.628 3.543 3.543 0 0 1 2.644-1.018 3.65 3.65 0 0 1 2.635 1.08 3.646 3.646 0 0 1 1.053 2.645zM397.976 218.806a3.66 3.66 0 0 1 2.234-3.441 3.657 3.657 0 0 1 1.415-.285 3.633 3.633 0 0 1 2.631.982 3.637 3.637 0 0 1 1.152 2.561 3.733 3.733 0 0 1-3.54 3.842 3.574 3.574 0 0 1-3.621-2.186 3.573 3.573 0 0 1-.271-1.473zM429.262 218.207a3.652 3.652 0 0 1-3.51 3.828 3.55 3.55 0 0 1-3.82-3.492 3.704 3.704 0 0 1 2.158-3.624 3.712 3.712 0 0 1 1.447-.335 3.658 3.658 0 0 1 2.623 1.031 3.64 3.64 0 0 1 1.102 2.592zM196.382 172.123a3.479 3.479 0 0 1-2.626-1.019 3.483 3.483 0 0 1-1.018-2.626 3.688 3.688 0 1 1 3.644 3.645zM172.386 196.021a3.642 3.642 0 0 1-2.192 3.408 3.654 3.654 0 0 1-3.987-.719 3.649 3.649 0 0 1 2.469-6.268 3.523 3.523 0 0 1 3.71 3.579zM267.793 104.503a3.53 3.53 0 0 1 3.889-3.397 3.647 3.647 0 0 1 2.596 1.258 3.65 3.65 0 0 1 .866 2.751 3.579 3.579 0 0 1-3.969 3.318 3.66 3.66 0 0 1-2.512-1.259 3.648 3.648 0 0 1-.87-2.671zM270.688 388.351a3.692 3.692 0 0 1-7.304.826 3.69 3.69 0 0 1 3.623-4.434 3.498 3.498 0 0 1 3.681 3.608zM220.144 104.724a3.666 3.666 0 0 1-2.542-1.155 3.642 3.642 0 0 1-.653-4 3.662 3.662 0 0 1 2.042-1.906 3.649 3.649 0 0 1 4.696 2.135 3.635 3.635 0 0 1-.097 2.79 3.643 3.643 0 0 1-2.041 1.905 3.644 3.644 0 0 1-1.405.231zM217.886 191.239a3.686 3.686 0 0 1-1.169 2.655 3.703 3.703 0 0 1-2.727.99 3.801 3.801 0 0 1-3.499-3.878 3.7 3.7 0 0 1 6.391-2.427 3.689 3.689 0 0 1 1.004 2.645v.015zM167.631 116.163a3.658 3.658 0 0 1-1.146 2.658 3.647 3.647 0 0 1-2.722.988 3.648 3.648 0 0 1-3.3-2.401 3.665 3.665 0 0 1-.213-1.419 3.695 3.695 0 0 1 6.363-2.46 3.684 3.684 0 0 1 1.018 2.634zM123.405 101.064a3.637 3.637 0 0 1-2.67-1.153 3.644 3.644 0 0 1-.975-2.74 3.708 3.708 0 0 1 3.904-3.463 3.56 3.56 0 0 1 3.315 2.38c.16.457.225.942.191 1.425a3.66 3.66 0 0 1-1.144 2.559 3.662 3.662 0 0 1-2.621.992zM147.583 92.017a3.717 3.717 0 0 1-6.434 2.394 3.71 3.71 0 0 1-.99-2.663 3.72 3.72 0 0 1 3.889-3.492 3.542 3.542 0 0 1 3.535 3.761zM253.735 36.803a3.7 3.7 0 0 1-3.696 3.532 3.696 3.696 0 0 1-3.692-3.531 3.693 3.693 0 0 1 1.024-2.72 3.698 3.698 0 0 1 6.364 2.719zM274.062 270.112a3.644 3.644 0 0 1-4.401 3.53 3.642 3.642 0 0 1-1.228-6.624 3.647 3.647 0 0 1 2.036-.587 3.491 3.491 0 0 1 3.593 3.681zM232.212 190.037a3.645 3.645 0 0 1-3.404-2.197 3.637 3.637 0 0 1-.238-2.103c.13-.71.468-1.365.971-1.882a3.64 3.64 0 0 1 1.853-1.026 3.64 3.64 0 0 1 4.408 3.512 3.488 3.488 0 0 1-.984 2.635 3.507 3.507 0 0 1-2.606 1.061zM218.963 404.897a3.525 3.525 0 0 1-3.695-3.644 3.64 3.64 0 0 1 2.236-3.434 3.642 3.642 0 0 1 1.412-.285 3.645 3.645 0 0 1 3.842 3.703 3.723 3.723 0 0 1-1.14 2.616 3.732 3.732 0 0 1-2.655 1.044zM140.012 185.918a3.675 3.675 0 0 1 2.661 6.252 3.684 3.684 0 0 1-2.592 1.104 3.565 3.565 0 0 1-3.768-3.732 3.647 3.647 0 0 1 3.699-3.624zM138.404 209.156a3.611 3.611 0 0 1-.976 2.64 3.611 3.611 0 0 1-2.578 1.129 3.528 3.528 0 0 1-3.783-3.499 3.593 3.593 0 0 1 3.648-3.864 3.518 3.518 0 0 1 3.689 3.594zM174.627 177.997a3.526 3.526 0 0 1-3.443-2.169 3.518 3.518 0 0 1-.267-1.411 3.596 3.596 0 0 1 1.049-2.697 3.606 3.606 0 0 1 2.695-1.057 3.51 3.51 0 0 1 2.616 1.028 3.522 3.522 0 0 1 1.028 2.616 3.595 3.595 0 0 1-3.678 3.69zM148.97 169.992a3.687 3.687 0 0 1-2.325 3.396 3.686 3.686 0 0 1-4.022-.865 3.683 3.683 0 0 1-.718-4.05 3.693 3.693 0 0 1 3.479-2.199 3.612 3.612 0 0 1 2.58 1.101 3.611 3.611 0 0 1 1.006 2.617zM213.242 134.59a3.686 3.686 0 0 1-6.364 2.428 3.676 3.676 0 0 1-.674-4.039 3.683 3.683 0 0 1 3.481-2.165 3.635 3.635 0 0 1 2.568 1.144 3.653 3.653 0 0 1 .989 2.632zM186.598 228.141a3.655 3.655 0 0 1 3.493 2.335c.179.466.26.964.239 1.463a3.701 3.701 0 0 1-6.307 2.395 3.695 3.695 0 0 1-1.081-2.54 3.584 3.584 0 0 1 1.047-2.607 3.567 3.567 0 0 1 2.609-1.046zM299.895 406.989a3.58 3.58 0 0 1-3.462-3.863 3.646 3.646 0 0 1 2.57-3.338 3.651 3.651 0 0 1 1.48-.14 3.567 3.567 0 0 1 3.345 3.951 3.632 3.632 0 0 1-1.258 2.517 3.65 3.65 0 0 1-2.675.873zM150.683 153.988a3.553 3.553 0 0 1-3.805-3.506 3.65 3.65 0 0 1 3.649-3.842 3.571 3.571 0 0 1 3.725 3.586 3.656 3.656 0 0 1-2.17 3.451 3.649 3.649 0 0 1-1.399.311zM149.765 312.233a3.564 3.564 0 0 1-2.232 3.424 3.58 3.58 0 0 1-1.417.258 3.72 3.72 0 0 1-2.624-1.086 3.703 3.703 0 0 1-1.086-2.624 3.72 3.72 0 0 1 1.089-2.624 3.715 3.715 0 0 1 2.625-1.087 3.722 3.722 0 0 1 3.645 3.739zM229.231 125.552a3.684 3.684 0 0 1 2.694 1.071 3.684 3.684 0 0 1 1.091 2.685 3.695 3.695 0 0 1-2.448 3.417c-.469.168-.967.24-1.465.212a3.645 3.645 0 0 1-3.564-3.762 3.589 3.589 0 0 1 1.077-2.594 3.598 3.598 0 0 1 2.615-1.029zM323.672 303.204a3.71 3.71 0 0 1-2.725-1.004 3.69 3.69 0 0 1-.034-5.34 3.693 3.693 0 0 1 2.712-1.042 3.643 3.643 0 0 1 3.645 3.492 3.606 3.606 0 0 1-.943 2.737 3.597 3.597 0 0 1-2.655 1.157zM222.192 425.101a3.707 3.707 0 0 1-6.31 2.693 3.703 3.703 0 0 1 2.622-6.338 3.518 3.518 0 0 1 3.688 3.645zM189.834 136.099a3.53 3.53 0 0 1 3.453 2.161c.186.446.279.927.272 1.411a3.577 3.577 0 0 1-2.275 3.52 3.593 3.593 0 0 1-1.461.242 3.515 3.515 0 0 1-3.645-3.645 3.618 3.618 0 0 1 1.043-2.622 3.61 3.61 0 0 1 2.613-1.067zM103.079 106.538a3.515 3.515 0 0 1-3.645-3.645 3.643 3.643 0 0 1 2.253-3.368 3.649 3.649 0 0 1 3.974.79c.509.51.856 1.159.997 1.866a3.65 3.65 0 0 1-3.579 4.357zM187.174 357.083a3.657 3.657 0 0 1-2.581-1.114 3.648 3.648 0 0 1-1.019-2.618 3.55 3.55 0 0 1 1.038-2.609 3.554 3.554 0 0 1 2.61-1.037 3.682 3.682 0 0 1 2.588 1.102c.338.344.604.752.784 1.2a3.68 3.68 0 0 1-.838 3.996 3.674 3.674 0 0 1-2.611 1.051l.029.029zM228.461 343.371a3.605 3.605 0 0 1-3.649 3.646 3.552 3.552 0 0 1-2.627-1.004 3.557 3.557 0 0 1-1.076-2.597 3.658 3.658 0 0 1 .994-2.62 3.657 3.657 0 0 1 2.56-1.142 3.56 3.56 0 0 1 2.734 1.006 3.552 3.552 0 0 1 1.064 2.711zM337.367 262.064a3.651 3.651 0 0 1-3.649 3.646 3.55 3.55 0 0 1-2.609-1.036 3.53 3.53 0 0 1-1.035-2.609 3.632 3.632 0 0 1 1.012-2.623 3.64 3.64 0 0 1 2.578-1.124 3.542 3.542 0 0 1 3.48 2.29c.175.465.251.961.223 1.456z"
    fill="#3B82F6"
    stroke="#3B82F6"
    stroke-width="2"
  />
</svg>